<svg width="220" height="37" viewBox="0 0 220 37" fill="none" xmlns="http://www.w3.org/2000/svg">
<path d="M130.421 15.148C130.061 14.452 129.51 13.888 128.766 13.456C128.046 13 127.217 12.772 126.281 12.772C125.849 12.772 125.417 12.82 124.985 12.916C124.553 13.012 124.169 13.168 123.833 13.384C123.497 13.6 123.221 13.876 123.005 14.212C122.813 14.548 122.717 14.944 122.717 15.4C122.717 16.192 123.041 16.804 123.689 17.236C124.337 17.644 125.357 17.992 126.749 18.28C128.741 18.688 130.205 19.288 131.141 20.08C132.101 20.848 132.581 21.892 132.581 23.212C132.581 24.172 132.389 24.988 132.005 25.66C131.645 26.308 131.166 26.848 130.566 27.28C129.966 27.688 129.281 27.976 128.513 28.144C127.769 28.336 127.013 28.432 126.245 28.432C124.973 28.432 123.737 28.168 122.537 27.64C121.337 27.112 120.353 26.284 119.585 25.156L121.529 23.716C121.961 24.46 122.597 25.084 123.437 25.588C124.277 26.092 125.201 26.344 126.209 26.344C126.737 26.344 127.241 26.296 127.721 26.2C128.201 26.104 128.622 25.936 128.982 25.696C129.342 25.456 129.63 25.156 129.846 24.796C130.062 24.412 130.169 23.944 130.169 23.392C130.169 22.504 129.738 21.844 128.874 21.412C128.034 20.956 126.809 20.536 125.201 20.152C124.697 20.032 124.157 19.888 123.581 19.72C123.029 19.528 122.513 19.264 122.033 18.928C121.553 18.568 121.157 18.124 120.845 17.596C120.533 17.068 120.377 16.408 120.377 15.616C120.377 14.752 120.545 14.02 120.881 13.42C121.217 12.796 121.661 12.292 122.213 11.908C122.789 11.5 123.437 11.2 124.157 11.008C124.877 10.816 125.621 10.72 126.389 10.72C127.565 10.72 128.705 10.984 129.809 11.512C130.913 12.04 131.742 12.784 132.294 13.744L130.421 15.148Z" fill="#F6791C"/>
<path d="M148.398 25.156C147.702 26.212 146.766 27.028 145.59 27.604C144.438 28.156 143.262 28.432 142.062 28.432C140.742 28.432 139.542 28.204 138.462 27.748C137.406 27.292 136.494 26.668 135.726 25.876C134.982 25.084 134.394 24.148 133.962 23.068C133.554 21.988 133.35 20.824 133.35 19.576C133.35 18.328 133.554 17.164 133.962 16.084C134.394 15.004 134.982 14.068 135.726 13.276C136.494 12.484 137.406 11.86 138.462 11.404C139.542 10.948 140.742 10.72 142.062 10.72C143.262 10.72 144.438 11.008 145.59 11.584C146.766 12.136 147.702 12.964 148.398 14.068H148.506V11.152H150.954V36.64H148.506V25.156H148.398ZM135.942 19.576C135.942 20.512 136.086 21.4 136.374 22.24C136.662 23.056 137.07 23.776 137.598 24.4C138.15 25 138.822 25.48 139.614 25.84C140.406 26.176 141.306 26.344 142.314 26.344C143.25 26.344 144.114 26.176 144.906 25.84C145.698 25.48 146.382 25 146.958 24.4C147.534 23.8 147.978 23.092 148.29 22.276C148.626 21.436 148.794 20.536 148.794 19.576C148.794 18.616 148.626 17.728 148.29 16.912C147.978 16.072 147.534 15.352 146.958 14.752C146.382 14.128 145.698 13.648 144.906 13.312C144.114 12.952 143.25 12.772 142.314 12.772C141.306 12.772 140.406 12.952 139.614 13.312C138.822 13.672 138.15 14.164 137.598 14.788C137.07 15.388 136.662 16.108 136.374 16.948C136.086 17.764 135.942 18.64 135.942 19.576Z" fill="#F6791C"/>
<path d="M166.785 28C166.737 27.544 166.701 27.04 166.677 26.488C166.653 25.936 166.641 25.48 166.641 25.12H166.569C166.089 26.104 165.309 26.908 164.229 27.532C163.149 28.132 162.009 28.432 160.809 28.432C158.673 28.432 157.065 27.796 155.985 26.524C154.929 25.252 154.401 23.572 154.401 21.484V11.152H156.849V20.476C156.849 21.364 156.921 22.168 157.065 22.888C157.209 23.608 157.449 24.232 157.785 24.76C158.145 25.264 158.613 25.66 159.189 25.948C159.789 26.236 160.533 26.38 161.421 26.38C162.069 26.38 162.693 26.248 163.293 25.984C163.917 25.72 164.469 25.324 164.949 24.796C165.429 24.244 165.813 23.56 166.101 22.744C166.389 21.904 166.533 20.92 166.533 19.792V11.152H168.981V24.292C168.981 24.748 168.993 25.336 169.017 26.056C169.041 26.776 169.077 27.424 169.125 28H166.785Z" fill="#F6791C"/>
<path d="M183.203 17.128C183.203 15.664 182.819 14.572 182.051 13.852C181.283 13.132 180.167 12.772 178.703 12.772C177.695 12.772 176.759 12.952 175.895 13.312C175.031 13.672 174.299 14.152 173.699 14.752L172.331 13.132C173.027 12.436 173.939 11.86 175.067 11.404C176.219 10.948 177.515 10.72 178.955 10.72C179.867 10.72 180.719 10.852 181.511 11.116C182.303 11.356 182.999 11.728 183.599 12.232C184.199 12.736 184.667 13.372 185.003 14.14C185.339 14.908 185.507 15.808 185.507 16.84V24.22C185.507 24.868 185.531 25.54 185.579 26.236C185.627 26.932 185.699 27.52 185.795 28H183.599C183.527 27.592 183.467 27.148 183.419 26.668C183.371 26.188 183.347 25.72 183.347 25.264H183.275C182.507 26.392 181.631 27.208 180.647 27.712C179.687 28.192 178.523 28.432 177.155 28.432C176.507 28.432 175.835 28.336 175.139 28.144C174.467 27.976 173.843 27.688 173.267 27.28C172.715 26.872 172.247 26.344 171.863 25.696C171.503 25.048 171.323 24.256 171.323 23.32C171.323 22.024 171.647 21.004 172.295 20.26C172.967 19.492 173.855 18.928 174.959 18.568C176.063 18.184 177.323 17.944 178.739 17.848C180.179 17.728 181.667 17.668 183.203 17.668V17.128ZM182.483 19.576C181.475 19.576 180.455 19.624 179.423 19.72C178.415 19.792 177.491 19.96 176.651 20.224C175.835 20.464 175.163 20.824 174.635 21.304C174.107 21.784 173.843 22.42 173.843 23.212C173.843 23.812 173.951 24.316 174.167 24.724C174.407 25.132 174.719 25.468 175.103 25.732C175.487 25.972 175.907 26.152 176.363 26.272C176.843 26.368 177.323 26.416 177.803 26.416C178.667 26.416 179.435 26.272 180.107 25.984C180.779 25.672 181.343 25.264 181.799 24.76C182.255 24.232 182.603 23.632 182.843 22.96C183.083 22.288 183.203 21.58 183.203 20.836V19.576H182.483Z" fill="#F6791C"/>
<path d="M202.794 25.156C202.074 26.236 201.138 27.052 199.986 27.604C198.834 28.156 197.646 28.432 196.422 28.432C195.102 28.432 193.902 28.204 192.822 27.748C191.766 27.292 190.854 26.668 190.086 25.876C189.342 25.084 188.754 24.148 188.322 23.068C187.914 21.988 187.71 20.824 187.71 19.576C187.71 18.328 187.914 17.164 188.322 16.084C188.754 15.004 189.342 14.068 190.086 13.276C190.854 12.484 191.766 11.86 192.822 11.404C193.902 10.948 195.102 10.72 196.422 10.72C197.646 10.72 198.834 11.008 199.986 11.584C201.138 12.136 202.074 12.964 202.794 14.068H202.866V0.783997H205.314V28H202.866V25.156H202.794ZM190.302 19.576C190.302 20.512 190.446 21.4 190.734 22.24C191.022 23.056 191.43 23.776 191.958 24.4C192.51 25 193.182 25.48 193.974 25.84C194.766 26.176 195.666 26.344 196.674 26.344C197.61 26.344 198.474 26.176 199.266 25.84C200.058 25.48 200.742 25 201.318 24.4C201.894 23.8 202.338 23.092 202.65 22.276C202.986 21.436 203.154 20.536 203.154 19.576C203.154 18.616 202.986 17.728 202.65 16.912C202.338 16.072 201.894 15.352 201.318 14.752C200.742 14.128 200.058 13.648 199.266 13.312C198.474 12.952 197.61 12.772 196.674 12.772C195.666 12.772 194.766 12.952 193.974 13.312C193.182 13.672 192.51 14.164 191.958 14.788C191.43 15.388 191.022 16.108 190.734 16.948C190.446 17.764 190.302 18.64 190.302 19.576Z" fill="#F6791C"/>
<path d="M21.22 10.216C22.348 10.216 23.308 10.42 24.1 10.828C24.916 11.212 25.576 11.728 26.08 12.376C26.608 13.024 26.992 13.768 27.232 14.608C27.472 15.448 27.592 16.312 27.592 17.2V28H23.272V18.424C23.272 17.92 23.236 17.392 23.164 16.84C23.092 16.288 22.936 15.796 22.696 15.364C22.456 14.908 22.12 14.536 21.688 14.248C21.28 13.96 20.728 13.816 20.032 13.816C19.36 13.816 18.784 13.96 18.304 14.248C17.824 14.536 17.428 14.908 17.116 15.364C16.804 15.82 16.576 16.336 16.432 16.912C16.288 17.464 16.216 18.016 16.216 18.568V28H11.896V17.56C11.896 16.48 11.632 15.592 11.104 14.896C10.6 14.176 9.79601 13.816 8.69201 13.816C8.04401 13.816 7.48001 13.96 7.00001 14.248C6.52001 14.512 6.12401 14.86 5.81201 15.292C5.52401 15.724 5.29601 16.228 5.12801 16.804C4.98401 17.356 4.91201 17.92 4.91201 18.496V28H0.59201V10.72H4.69601V13.492H4.76801C4.96001 13.06 5.21201 12.652 5.52401 12.268C5.86001 11.884 6.24401 11.536 6.67601 11.224C7.13201 10.912 7.64801 10.672 8.22401 10.504C8.80001 10.312 9.43601 10.216 10.132 10.216C11.476 10.216 12.592 10.516 13.48 11.116C14.368 11.716 15.052 12.508 15.532 13.492C16.108 12.436 16.876 11.632 17.836 11.08C18.796 10.504 19.924 10.216 21.22 10.216Z" fill="#4B80FC"/>
<path d="M41.9074 17.632C41.9074 17.08 41.8234 16.552 41.6554 16.048C41.5114 15.544 41.2714 15.1 40.9354 14.716C40.5994 14.332 40.1674 14.032 39.6394 13.816C39.1354 13.576 38.5354 13.456 37.8394 13.456C36.5434 13.456 35.4394 13.852 34.5274 14.644C33.6394 15.412 33.1474 16.408 33.0514 17.632H41.9074ZM46.2274 19.576C46.2274 19.768 46.2274 19.96 46.2274 20.152C46.2274 20.344 46.2154 20.536 46.1914 20.728H33.0514C33.0994 21.352 33.2554 21.928 33.5194 22.456C33.8074 22.96 34.1794 23.404 34.6354 23.788C35.0914 24.148 35.6074 24.436 36.1834 24.652C36.7594 24.868 37.3594 24.976 37.9834 24.976C39.0634 24.976 39.9754 24.784 40.7194 24.4C41.4634 23.992 42.0754 23.44 42.5554 22.744L45.4354 25.048C43.7314 27.352 41.2594 28.504 38.0194 28.504C36.6754 28.504 35.4394 28.3 34.3114 27.892C33.1834 27.46 32.1994 26.86 31.3594 26.092C30.5434 25.324 29.8954 24.388 29.4154 23.284C28.9594 22.156 28.7314 20.884 28.7314 19.468C28.7314 18.076 28.9594 16.816 29.4154 15.688C29.8954 14.536 30.5434 13.564 31.3594 12.772C32.1754 11.956 33.1354 11.332 34.2394 10.9C35.3674 10.444 36.5794 10.216 37.8754 10.216C39.0754 10.216 40.1794 10.42 41.1874 10.828C42.2194 11.212 43.1074 11.8 43.8514 12.592C44.5954 13.36 45.1714 14.332 45.5794 15.508C46.0114 16.66 46.2274 18.016 46.2274 19.576Z" fill="#4B80FC"/>
<path d="M59.6992 17.632C59.6992 17.08 59.6152 16.552 59.4472 16.048C59.3032 15.544 59.0632 15.1 58.7272 14.716C58.3912 14.332 57.9592 14.032 57.4312 13.816C56.9272 13.576 56.3272 13.456 55.6312 13.456C54.3352 13.456 53.2312 13.852 52.3192 14.644C51.4312 15.412 50.9392 16.408 50.8432 17.632H59.6992ZM64.0192 19.576C64.0192 19.768 64.0192 19.96 64.0192 20.152C64.0192 20.344 64.0072 20.536 63.9832 20.728H50.8432C50.8912 21.352 51.0472 21.928 51.3112 22.456C51.5992 22.96 51.9712 23.404 52.4272 23.788C52.8832 24.148 53.3992 24.436 53.9752 24.652C54.5512 24.868 55.1512 24.976 55.7752 24.976C56.8552 24.976 57.7672 24.784 58.5112 24.4C59.2552 23.992 59.8672 23.44 60.3472 22.744L63.2272 25.048C61.5232 27.352 59.0512 28.504 55.8112 28.504C54.4672 28.504 53.2312 28.3 52.1032 27.892C50.9752 27.46 49.9912 26.86 49.1512 26.092C48.3352 25.324 47.6872 24.388 47.2072 23.284C46.7512 22.156 46.5232 20.884 46.5232 19.468C46.5232 18.076 46.7512 16.816 47.2072 15.688C47.6872 14.536 48.3352 13.564 49.1512 12.772C49.9672 11.956 50.9272 11.332 52.0312 10.9C53.1592 10.444 54.3712 10.216 55.6672 10.216C56.8672 10.216 57.9712 10.42 58.9792 10.828C60.0112 11.212 60.8992 11.8 61.6432 12.592C62.3872 13.36 62.9632 14.332 63.3712 15.508C63.8032 16.66 64.0192 18.016 64.0192 19.576Z" fill="#4B80FC"/>
<path d="M62.8391 14.176V10.72H65.8631V5.71601H70.1111V10.72H74.4311V14.176H70.1111V22.204C70.1111 22.972 70.2431 23.608 70.5071 24.112C70.7951 24.616 71.4191 24.868 72.3791 24.868C72.6671 24.868 72.9791 24.844 73.3151 24.796C73.6511 24.724 73.9511 24.628 74.2151 24.508L74.3591 27.892C73.9751 28.036 73.5191 28.144 72.9911 28.216C72.4631 28.312 71.9591 28.36 71.4791 28.36C70.3271 28.36 69.3911 28.204 68.6711 27.892C67.9511 27.556 67.3751 27.112 66.9431 26.56C66.5351 25.984 66.2471 25.336 66.0791 24.616C65.9351 23.872 65.8631 23.08 65.8631 22.24V14.176H62.8391Z" fill="#4B80FC"/>
<path d="M76.1895 10.72H80.5095V28H76.1895V10.72ZM75.5775 4.85201C75.5775 4.15601 75.8295 3.55601 76.3335 3.05201C76.8615 2.52401 77.5215 2.26001 78.3135 2.26001C79.1055 2.26001 79.7655 2.51201 80.2935 3.01601C80.8455 3.49601 81.1215 4.10801 81.1215 4.85201C81.1215 5.59601 80.8455 6.22001 80.2935 6.72401C79.7655 7.20401 79.1055 7.44401 78.3135 7.44401C77.5215 7.44401 76.8615 7.19201 76.3335 6.68801C75.8295 6.16001 75.5775 5.54801 75.5775 4.85201Z" fill="#4B80FC"/>
<path d="M82.8703 10.72H86.9743V13.492H87.0463C87.4303 12.628 88.0903 11.872 89.0263 11.224C89.9863 10.552 91.1143 10.216 92.4103 10.216C93.5383 10.216 94.4983 10.42 95.2903 10.828C96.1063 11.212 96.7663 11.728 97.2703 12.376C97.7983 13.024 98.1823 13.768 98.4223 14.608C98.6623 15.448 98.7823 16.312 98.7823 17.2V28H94.4623V18.424C94.4623 17.92 94.4263 17.392 94.3543 16.84C94.2823 16.288 94.1263 15.796 93.8863 15.364C93.6463 14.908 93.3103 14.536 92.8783 14.248C92.4703 13.96 91.9183 13.816 91.2223 13.816C90.5263 13.816 89.9263 13.96 89.4223 14.248C88.9183 14.512 88.4983 14.86 88.1623 15.292C87.8503 15.724 87.6103 16.228 87.4423 16.804C87.2743 17.356 87.1903 17.92 87.1903 18.496V28H82.8703V10.72Z" fill="#4B80FC"/>
<path d="M118.511 10.72V26.452C118.511 28.012 118.319 29.416 117.935 30.664C117.551 31.936 116.951 33.004 116.135 33.868C115.343 34.756 114.335 35.44 113.111 35.92C111.887 36.4 110.435 36.64 108.755 36.64C108.059 36.64 107.315 36.58 106.523 36.46C105.755 36.34 104.987 36.16 104.219 35.92C103.475 35.68 102.755 35.38 102.059 35.02C101.363 34.66 100.739 34.252 100.187 33.796L102.671 30.448C103.511 31.24 104.459 31.84 105.515 32.248C106.571 32.68 107.639 32.896 108.719 32.896C109.751 32.896 110.615 32.74 111.311 32.428C112.031 32.14 112.595 31.732 113.003 31.204C113.435 30.676 113.735 30.052 113.903 29.332C114.095 28.612 114.191 27.82 114.191 26.956V25.696H114.119C113.495 26.536 112.691 27.184 111.707 27.64C110.747 28.072 109.667 28.288 108.467 28.288C107.171 28.288 105.995 28.048 104.939 27.568C103.883 27.088 102.983 26.44 102.239 25.624C101.519 24.808 100.955 23.86 100.547 22.78C100.139 21.676 99.9354 20.512 99.9354 19.288C99.9354 18.04 100.127 16.864 100.511 15.76C100.919 14.656 101.483 13.696 102.203 12.88C102.947 12.064 103.835 11.416 104.867 10.936C105.923 10.456 107.099 10.216 108.395 10.216C109.619 10.216 110.759 10.468 111.815 10.972C112.871 11.476 113.711 12.256 114.335 13.312H114.407V10.72H118.511ZM109.295 13.744C108.503 13.744 107.795 13.888 107.171 14.176C106.571 14.464 106.055 14.86 105.623 15.364C105.215 15.844 104.891 16.42 104.651 17.092C104.435 17.764 104.327 18.484 104.327 19.252C104.327 19.948 104.435 20.62 104.651 21.268C104.891 21.916 105.215 22.504 105.623 23.032C106.055 23.536 106.571 23.944 107.171 24.256C107.795 24.568 108.491 24.724 109.259 24.724C110.051 24.724 110.759 24.58 111.383 24.292C112.031 23.98 112.571 23.572 113.003 23.068C113.459 22.564 113.807 21.988 114.047 21.34C114.287 20.668 114.407 19.972 114.407 19.252C114.407 18.508 114.287 17.8 114.047 17.128C113.807 16.456 113.459 15.868 113.003 15.364C112.571 14.86 112.043 14.464 111.419 14.176C110.795 13.888 110.087 13.744 109.295 13.744Z" fill="#4B80FC"/>
<path d="M211 3.95H214.51V4.58H213.13V8.16H212.37V4.58H211V3.95ZM219.27 3.95V8.16H218.6V5.34L217.47 7.49H216.97L215.84 5.37V8.16H215.16V3.95H215.76L217.22 6.75L218.68 3.95H219.27Z" fill="#B6BDCC"/>
</svg>
