<svg width="143" height="27" viewBox="0 0 143 27" fill="none" xmlns="http://www.w3.org/2000/svg">
<path d="M89.2799 21.384C89.9519 22.248 90.8639 22.98 92.0159 23.58C93.1919 24.18 94.4279 24.48 95.7239 24.48C96.9239 24.48 97.9439 24.3 98.7839 23.94C99.6239 23.604 100.296 23.136 100.8 22.536C101.328 21.936 101.712 21.228 101.952 20.412C102.192 19.62 102.312 18.768 102.312 17.856V14.688H102.24C101.592 15.744 100.668 16.56 99.4679 17.136C98.2919 17.712 97.0919 18 95.8679 18C94.5479 18 93.3479 17.784 92.2679 17.352C91.2119 16.92 90.2999 16.332 89.5319 15.588C88.7879 14.82 88.1999 13.908 87.7679 12.852C87.3599 11.796 87.1559 10.656 87.1559 9.432C87.1559 8.232 87.3599 7.104 87.7679 6.048C88.1999 4.992 88.7879 4.068 89.5319 3.276C90.2999 2.484 91.2119 1.86 92.2679 1.404C93.3479 0.948001 94.5479 0.720001 95.8679 0.720001C97.0919 0.720001 98.2919 1.008 99.4679 1.584C100.644 2.16 101.568 2.988 102.24 4.068H102.312V1.152H104.76V17.856C104.76 18.768 104.628 19.74 104.364 20.772C104.124 21.804 103.656 22.752 102.96 23.616C102.288 24.48 101.364 25.2 100.188 25.776C99.0119 26.352 97.4879 26.64 95.6159 26.64C94.0559 26.64 92.5679 26.34 91.1519 25.74C89.7359 25.14 88.5239 24.312 87.5159 23.256L89.2799 21.384ZM89.7479 9.36C89.7479 10.248 89.8919 11.088 90.1799 11.88C90.4679 12.672 90.8759 13.368 91.4039 13.968C91.9559 14.568 92.6279 15.048 93.4199 15.408C94.2119 15.744 95.1119 15.912 96.1199 15.912C97.0559 15.912 97.9199 15.756 98.7119 15.444C99.5039 15.132 100.188 14.688 100.764 14.112C101.34 13.536 101.784 12.852 102.096 12.06C102.432 11.244 102.6 10.344 102.6 9.36C102.6 8.472 102.432 7.632 102.096 6.84C101.784 6.048 101.34 5.352 100.764 4.752C100.188 4.152 99.5039 3.672 98.7119 3.312C97.9199 2.952 97.0559 2.772 96.1199 2.772C95.1119 2.772 94.2119 2.952 93.4199 3.312C92.6279 3.672 91.9559 4.152 91.4039 4.752C90.8759 5.352 90.4679 6.048 90.1799 6.84C89.8919 7.632 89.7479 8.472 89.7479 9.36Z" fill="#F6791C"/>
<path d="M121.566 18C121.518 17.544 121.482 17.04 121.458 16.488C121.434 15.936 121.422 15.48 121.422 15.12H121.35C120.87 16.104 120.09 16.908 119.01 17.532C117.93 18.132 116.79 18.432 115.59 18.432C113.454 18.432 111.846 17.796 110.766 16.524C109.71 15.252 109.182 13.572 109.182 11.484V1.152H111.63V10.476C111.63 11.364 111.702 12.168 111.846 12.888C111.99 13.608 112.23 14.232 112.566 14.76C112.926 15.264 113.394 15.66 113.97 15.948C114.57 16.236 115.314 16.38 116.202 16.38C116.85 16.38 117.474 16.248 118.074 15.984C118.698 15.72 119.25 15.324 119.73 14.796C120.21 14.244 120.594 13.56 120.882 12.744C121.17 11.904 121.314 10.92 121.314 9.792V1.152H123.762V14.292C123.762 14.748 123.774 15.336 123.798 16.056C123.822 16.776 123.858 17.424 123.906 18H121.566Z" fill="#F6791C"/>
<path d="M134.24 15.372H134.312L139.532 1.152H142.196L133.808 22.356C133.304 23.652 132.656 24.684 131.864 25.452C131.096 26.244 129.98 26.64 128.516 26.64C127.772 26.64 127.04 26.568 126.32 26.424L126.572 24.192C127.148 24.384 127.748 24.48 128.372 24.48C129.212 24.48 129.872 24.216 130.352 23.688C130.832 23.184 131.252 22.452 131.612 21.492L132.98 17.964L125.78 1.152H128.516L134.24 15.372Z" fill="#F6791C"/>
<path d="M0.223999 14.184L9.548 4.176H0.655999V0.720003H14.696V4.536L5.336 14.472H15.128V18H0.223999V14.184Z" fill="#4B80FC"/>
<path d="M16.1512 9.288C16.1512 7.92 16.3912 6.684 16.8712 5.58C17.3752 4.452 18.0472 3.492 18.8872 2.7C19.7272 1.908 20.7232 1.296 21.8752 0.864004C23.0272 0.432004 24.2512 0.216003 25.5472 0.216003C26.8432 0.216003 28.0672 0.432004 29.2192 0.864004C30.3712 1.296 31.3672 1.908 32.2072 2.7C33.0472 3.492 33.7072 4.452 34.1872 5.58C34.6912 6.684 34.9432 7.92 34.9432 9.288C34.9432 10.656 34.6912 11.904 34.1872 13.032C33.7072 14.16 33.0472 15.132 32.2072 15.948C31.3672 16.74 30.3712 17.364 29.2192 17.82C28.0672 18.276 26.8432 18.504 25.5472 18.504C24.2512 18.504 23.0272 18.276 21.8752 17.82C20.7232 17.364 19.7272 16.74 18.8872 15.948C18.0472 15.132 17.3752 14.16 16.8712 13.032C16.3912 11.904 16.1512 10.656 16.1512 9.288ZM20.5432 9.288C20.5432 9.96 20.6392 10.632 20.8312 11.304C21.0472 11.976 21.3592 12.576 21.7672 13.104C22.1752 13.632 22.6912 14.064 23.3152 14.4C23.9392 14.736 24.6832 14.904 25.5472 14.904C26.4112 14.904 27.1552 14.736 27.7792 14.4C28.4032 14.064 28.9192 13.632 29.3272 13.104C29.7352 12.576 30.0352 11.976 30.2272 11.304C30.4432 10.632 30.5512 9.96 30.5512 9.288C30.5512 8.616 30.4432 7.956 30.2272 7.308C30.0352 6.636 29.7352 6.036 29.3272 5.508C28.9192 4.98 28.4032 4.56 27.7792 4.248C27.1552 3.912 26.4112 3.744 25.5472 3.744C24.6832 3.744 23.9392 3.912 23.3152 4.248C22.6912 4.56 22.1752 4.98 21.7672 5.508C21.3592 6.036 21.0472 6.636 20.8312 7.308C20.6392 7.956 20.5432 8.616 20.5432 9.288Z" fill="#4B80FC"/>
<path d="M36.3238 9.288C36.3238 7.92 36.5638 6.684 37.0438 5.58C37.5478 4.452 38.2198 3.492 39.0598 2.7C39.8998 1.908 40.8958 1.296 42.0478 0.864004C43.1998 0.432004 44.4238 0.216003 45.7198 0.216003C47.0158 0.216003 48.2398 0.432004 49.3918 0.864004C50.5438 1.296 51.5398 1.908 52.3798 2.7C53.2198 3.492 53.8798 4.452 54.3598 5.58C54.8638 6.684 55.1158 7.92 55.1158 9.288C55.1158 10.656 54.8638 11.904 54.3598 13.032C53.8798 14.16 53.2198 15.132 52.3798 15.948C51.5398 16.74 50.5438 17.364 49.3918 17.82C48.2398 18.276 47.0158 18.504 45.7198 18.504C44.4238 18.504 43.1998 18.276 42.0478 17.82C40.8958 17.364 39.8998 16.74 39.0598 15.948C38.2198 15.132 37.5478 14.16 37.0438 13.032C36.5638 11.904 36.3238 10.656 36.3238 9.288ZM40.7158 9.288C40.7158 9.96 40.8118 10.632 41.0038 11.304C41.2198 11.976 41.5318 12.576 41.9398 13.104C42.3478 13.632 42.8638 14.064 43.4878 14.4C44.1118 14.736 44.8558 14.904 45.7198 14.904C46.5838 14.904 47.3278 14.736 47.9518 14.4C48.5758 14.064 49.0918 13.632 49.4998 13.104C49.9078 12.576 50.2078 11.976 50.3998 11.304C50.6158 10.632 50.7238 9.96 50.7238 9.288C50.7238 8.616 50.6158 7.956 50.3998 7.308C50.2078 6.636 49.9078 6.036 49.4998 5.508C49.0918 4.98 48.5758 4.56 47.9518 4.248C47.3278 3.912 46.5838 3.744 45.7198 3.744C44.8558 3.744 44.1118 3.912 43.4878 4.248C42.8638 4.56 42.3478 4.98 41.9398 5.508C41.5318 6.036 41.2198 6.636 41.0038 7.308C40.8118 7.956 40.7158 8.616 40.7158 9.288Z" fill="#4B80FC"/>
<path d="M78.1325 0.216003C79.2605 0.216003 80.2205 0.420003 81.0125 0.828003C81.8285 1.212 82.4885 1.728 82.9925 2.376C83.5205 3.024 83.9045 3.768 84.1445 4.608C84.3845 5.448 84.5045 6.312 84.5045 7.2V18H80.1845V8.424C80.1845 7.92 80.1485 7.392 80.0765 6.84C80.0045 6.288 79.8485 5.796 79.6085 5.364C79.3685 4.908 79.0325 4.536 78.6005 4.248C78.1925 3.96 77.6405 3.816 76.9445 3.816C76.2725 3.816 75.6965 3.96 75.2165 4.248C74.7365 4.536 74.3405 4.908 74.0285 5.364C73.7165 5.82 73.4885 6.336 73.3445 6.912C73.2005 7.464 73.1285 8.016 73.1285 8.568V18H68.8085V7.56C68.8085 6.48 68.5445 5.592 68.0165 4.896C67.5125 4.176 66.7085 3.816 65.6045 3.816C64.9565 3.816 64.3925 3.96 63.9125 4.248C63.4325 4.512 63.0365 4.86 62.7245 5.292C62.4365 5.724 62.2085 6.228 62.0405 6.804C61.8965 7.356 61.8245 7.92 61.8245 8.496V18H57.5045V0.720003H61.6085V3.492H61.6805C61.8725 3.06 62.1245 2.652 62.4365 2.268C62.7725 1.884 63.1565 1.536 63.5885 1.224C64.0445 0.912003 64.5605 0.672004 65.1365 0.504004C65.7125 0.312004 66.3485 0.216003 67.0445 0.216003C68.3885 0.216003 69.5045 0.516003 70.3925 1.116C71.2805 1.716 71.9645 2.508 72.4445 3.492C73.0205 2.436 73.7885 1.632 74.7485 1.08C75.7085 0.504002 76.8365 0.216003 78.1325 0.216003Z" fill="#4B80FC"/>
</svg>
