<svg width="168" height="37" viewBox="0 0 168 37" fill="none" xmlns="http://www.w3.org/2000/svg">
<path d="M93.0238 15.148C92.6638 14.452 92.1118 13.888 91.3678 13.456C90.6478 13 89.8198 12.772 88.8838 12.772C88.4518 12.772 88.0198 12.82 87.5878 12.916C87.1558 13.012 86.7718 13.168 86.4358 13.384C86.0998 13.6 85.8238 13.876 85.6078 14.212C85.4158 14.548 85.3198 14.944 85.3198 15.4C85.3198 16.192 85.6438 16.804 86.2918 17.236C86.9398 17.644 87.9598 17.992 89.3518 18.28C91.3438 18.688 92.8078 19.288 93.7438 20.08C94.7038 20.848 95.1838 21.892 95.1838 23.212C95.1838 24.172 94.9918 24.988 94.6078 25.66C94.2478 26.308 93.7678 26.848 93.1678 27.28C92.5678 27.688 91.8838 27.976 91.1158 28.144C90.3718 28.336 89.6158 28.432 88.8478 28.432C87.5758 28.432 86.3398 28.168 85.1398 27.64C83.9398 27.112 82.9558 26.284 82.1878 25.156L84.1318 23.716C84.5638 24.46 85.1998 25.084 86.0398 25.588C86.8798 26.092 87.8038 26.344 88.8118 26.344C89.3398 26.344 89.8438 26.296 90.3238 26.2C90.8038 26.104 91.2238 25.936 91.5838 25.696C91.9438 25.456 92.2318 25.156 92.4478 24.796C92.6638 24.412 92.7718 23.944 92.7718 23.392C92.7718 22.504 92.3398 21.844 91.4758 21.412C90.6358 20.956 89.4118 20.536 87.8038 20.152C87.2998 20.032 86.7598 19.888 86.1838 19.72C85.6318 19.528 85.1158 19.264 84.6358 18.928C84.1558 18.568 83.7598 18.124 83.4478 17.596C83.1358 17.068 82.9798 16.408 82.9798 15.616C82.9798 14.752 83.1478 14.02 83.4838 13.42C83.8198 12.796 84.2638 12.292 84.8158 11.908C85.3918 11.5 86.0398 11.2 86.7598 11.008C87.4798 10.816 88.2238 10.72 88.9918 10.72C90.1678 10.72 91.3078 10.984 92.4118 11.512C93.5158 12.04 94.3438 12.784 94.8958 13.744L93.0238 15.148Z" fill="#F6791C"/>
<path d="M111 25.156C110.304 26.212 109.368 27.028 108.192 27.604C107.04 28.156 105.864 28.432 104.664 28.432C103.344 28.432 102.144 28.204 101.064 27.748C100.008 27.292 99.0959 26.668 98.3279 25.876C97.5839 25.084 96.9959 24.148 96.5639 23.068C96.1559 21.988 95.9519 20.824 95.9519 19.576C95.9519 18.328 96.1559 17.164 96.5639 16.084C96.9959 15.004 97.5839 14.068 98.3279 13.276C99.0959 12.484 100.008 11.86 101.064 11.404C102.144 10.948 103.344 10.72 104.664 10.72C105.864 10.72 107.04 11.008 108.192 11.584C109.368 12.136 110.304 12.964 111 14.068H111.108V11.152H113.556V36.64H111.108V25.156H111ZM98.5439 19.576C98.5439 20.512 98.6879 21.4 98.9759 22.24C99.2639 23.056 99.6719 23.776 100.2 24.4C100.752 25 101.424 25.48 102.216 25.84C103.008 26.176 103.908 26.344 104.916 26.344C105.852 26.344 106.716 26.176 107.508 25.84C108.3 25.48 108.984 25 109.56 24.4C110.136 23.8 110.58 23.092 110.892 22.276C111.228 21.436 111.396 20.536 111.396 19.576C111.396 18.616 111.228 17.728 110.892 16.912C110.58 16.072 110.136 15.352 109.56 14.752C108.984 14.128 108.3 13.648 107.508 13.312C106.716 12.952 105.852 12.772 104.916 12.772C103.908 12.772 103.008 12.952 102.216 13.312C101.424 13.672 100.752 14.164 100.2 14.788C99.6719 15.388 99.2639 16.108 98.9759 16.948C98.6879 17.764 98.5439 18.64 98.5439 19.576Z" fill="#F6791C"/>
<path d="M129.387 28C129.339 27.544 129.303 27.04 129.279 26.488C129.255 25.936 129.243 25.48 129.243 25.12H129.172C128.692 26.104 127.911 26.908 126.831 27.532C125.751 28.132 124.611 28.432 123.411 28.432C121.275 28.432 119.667 27.796 118.587 26.524C117.531 25.252 117.003 23.572 117.003 21.484V11.152H119.451V20.476C119.451 21.364 119.523 22.168 119.667 22.888C119.811 23.608 120.051 24.232 120.387 24.76C120.747 25.264 121.215 25.66 121.791 25.948C122.391 26.236 123.135 26.38 124.023 26.38C124.671 26.38 125.295 26.248 125.895 25.984C126.519 25.72 127.071 25.324 127.551 24.796C128.031 24.244 128.415 23.56 128.703 22.744C128.991 21.904 129.135 20.92 129.135 19.792V11.152H131.583V24.292C131.583 24.748 131.595 25.336 131.619 26.056C131.643 26.776 131.68 27.424 131.728 28H129.387Z" fill="#F6791C"/>
<path d="M145.805 17.128C145.805 15.664 145.421 14.572 144.653 13.852C143.885 13.132 142.769 12.772 141.305 12.772C140.297 12.772 139.361 12.952 138.497 13.312C137.633 13.672 136.901 14.152 136.301 14.752L134.933 13.132C135.629 12.436 136.541 11.86 137.669 11.404C138.821 10.948 140.117 10.72 141.557 10.72C142.469 10.72 143.321 10.852 144.113 11.116C144.905 11.356 145.601 11.728 146.201 12.232C146.801 12.736 147.269 13.372 147.605 14.14C147.941 14.908 148.109 15.808 148.109 16.84V24.22C148.109 24.868 148.133 25.54 148.181 26.236C148.229 26.932 148.301 27.52 148.397 28H146.201C146.129 27.592 146.069 27.148 146.021 26.668C145.973 26.188 145.949 25.72 145.949 25.264H145.877C145.109 26.392 144.233 27.208 143.249 27.712C142.289 28.192 141.125 28.432 139.757 28.432C139.109 28.432 138.437 28.336 137.741 28.144C137.069 27.976 136.445 27.688 135.869 27.28C135.317 26.872 134.849 26.344 134.465 25.696C134.105 25.048 133.925 24.256 133.925 23.32C133.925 22.024 134.249 21.004 134.897 20.26C135.569 19.492 136.457 18.928 137.561 18.568C138.665 18.184 139.925 17.944 141.341 17.848C142.781 17.728 144.269 17.668 145.805 17.668V17.128ZM145.085 19.576C144.077 19.576 143.057 19.624 142.025 19.72C141.017 19.792 140.093 19.96 139.253 20.224C138.437 20.464 137.765 20.824 137.237 21.304C136.709 21.784 136.445 22.42 136.445 23.212C136.445 23.812 136.553 24.316 136.769 24.724C137.009 25.132 137.321 25.468 137.705 25.732C138.089 25.972 138.509 26.152 138.965 26.272C139.445 26.368 139.925 26.416 140.405 26.416C141.269 26.416 142.037 26.272 142.709 25.984C143.381 25.672 143.945 25.264 144.401 24.76C144.857 24.232 145.205 23.632 145.445 22.96C145.685 22.288 145.805 21.58 145.805 20.836V19.576H145.085Z" fill="#F6791C"/>
<path d="M165.396 25.156C164.676 26.236 163.74 27.052 162.588 27.604C161.436 28.156 160.248 28.432 159.024 28.432C157.704 28.432 156.504 28.204 155.424 27.748C154.368 27.292 153.456 26.668 152.688 25.876C151.944 25.084 151.356 24.148 150.924 23.068C150.516 21.988 150.312 20.824 150.312 19.576C150.312 18.328 150.516 17.164 150.924 16.084C151.356 15.004 151.944 14.068 152.688 13.276C153.456 12.484 154.368 11.86 155.424 11.404C156.504 10.948 157.704 10.72 159.024 10.72C160.248 10.72 161.436 11.008 162.588 11.584C163.74 12.136 164.676 12.964 165.396 14.068H165.468V0.783997H167.916V28H165.468V25.156H165.396ZM152.904 19.576C152.904 20.512 153.048 21.4 153.336 22.24C153.624 23.056 154.032 23.776 154.56 24.4C155.112 25 155.784 25.48 156.576 25.84C157.368 26.176 158.268 26.344 159.276 26.344C160.212 26.344 161.076 26.176 161.868 25.84C162.66 25.48 163.344 25 163.92 24.4C164.496 23.8 164.94 23.092 165.252 22.276C165.588 21.436 165.756 20.536 165.756 19.576C165.756 18.616 165.588 17.728 165.252 16.912C164.94 16.072 164.496 15.352 163.92 14.752C163.344 14.128 162.66 13.648 161.868 13.312C161.076 12.952 160.212 12.772 159.276 12.772C158.268 12.772 157.368 12.952 156.576 13.312C155.784 13.672 155.112 14.164 154.56 14.788C154.032 15.388 153.624 16.108 153.336 16.948C153.048 17.764 152.904 18.64 152.904 19.576Z" fill="#F6791C"/>
<path d="M0.223999 24.184L9.548 14.176H0.655999V10.72H14.696V14.536L5.336 24.472H15.128V28H0.223999V24.184Z" fill="#4B80FC"/>
<path d="M15.0712 19.288C15.0712 17.92 15.3112 16.684 15.7912 15.58C16.2952 14.452 16.9672 13.492 17.8072 12.7C18.6472 11.908 19.6432 11.296 20.7952 10.864C21.9472 10.432 23.1712 10.216 24.4672 10.216C25.7632 10.216 26.9872 10.432 28.1392 10.864C29.2912 11.296 30.2872 11.908 31.1272 12.7C31.9672 13.492 32.6272 14.452 33.1072 15.58C33.6112 16.684 33.8632 17.92 33.8632 19.288C33.8632 20.656 33.6112 21.904 33.1072 23.032C32.6272 24.16 31.9672 25.132 31.1272 25.948C30.2872 26.74 29.2912 27.364 28.1392 27.82C26.9872 28.276 25.7632 28.504 24.4672 28.504C23.1712 28.504 21.9472 28.276 20.7952 27.82C19.6432 27.364 18.6472 26.74 17.8072 25.948C16.9672 25.132 16.2952 24.16 15.7912 23.032C15.3112 21.904 15.0712 20.656 15.0712 19.288ZM19.4632 19.288C19.4632 19.96 19.5592 20.632 19.7512 21.304C19.9672 21.976 20.2792 22.576 20.6872 23.104C21.0952 23.632 21.6112 24.064 22.2352 24.4C22.8592 24.736 23.6032 24.904 24.4672 24.904C25.3312 24.904 26.0752 24.736 26.6992 24.4C27.3232 24.064 27.8392 23.632 28.2472 23.104C28.6552 22.576 28.9552 21.976 29.1472 21.304C29.3632 20.632 29.4712 19.96 29.4712 19.288C29.4712 18.616 29.3632 17.956 29.1472 17.308C28.9552 16.636 28.6552 16.036 28.2472 15.508C27.8392 14.98 27.3232 14.56 26.6992 14.248C26.0752 13.912 25.3312 13.744 24.4672 13.744C23.6032 13.744 22.8592 13.912 22.2352 14.248C21.6112 14.56 21.0952 14.98 20.6872 15.508C20.2792 16.036 19.9672 16.636 19.7512 17.308C19.5592 17.956 19.4632 18.616 19.4632 19.288Z" fill="#4B80FC"/>
<path d="M34.1638 19.288C34.1638 17.92 34.4038 16.684 34.8838 15.58C35.3878 14.452 36.0598 13.492 36.8998 12.7C37.7398 11.908 38.7358 11.296 39.8878 10.864C41.0398 10.432 42.2638 10.216 43.5598 10.216C44.8558 10.216 46.0798 10.432 47.2318 10.864C48.3838 11.296 49.3798 11.908 50.2198 12.7C51.0598 13.492 51.7198 14.452 52.1998 15.58C52.7038 16.684 52.9558 17.92 52.9558 19.288C52.9558 20.656 52.7038 21.904 52.1998 23.032C51.7198 24.16 51.0598 25.132 50.2198 25.948C49.3798 26.74 48.3838 27.364 47.2318 27.82C46.0798 28.276 44.8558 28.504 43.5598 28.504C42.2638 28.504 41.0398 28.276 39.8878 27.82C38.7358 27.364 37.7398 26.74 36.8998 25.948C36.0598 25.132 35.3878 24.16 34.8838 23.032C34.4038 21.904 34.1638 20.656 34.1638 19.288ZM38.5558 19.288C38.5558 19.96 38.6518 20.632 38.8438 21.304C39.0598 21.976 39.3718 22.576 39.7798 23.104C40.1878 23.632 40.7038 24.064 41.3278 24.4C41.9518 24.736 42.6958 24.904 43.5598 24.904C44.4238 24.904 45.1678 24.736 45.7918 24.4C46.4158 24.064 46.9318 23.632 47.3398 23.104C47.7478 22.576 48.0478 21.976 48.2398 21.304C48.4558 20.632 48.5638 19.96 48.5638 19.288C48.5638 18.616 48.4558 17.956 48.2398 17.308C48.0478 16.636 47.7478 16.036 47.3398 15.508C46.9318 14.98 46.4158 14.56 45.7918 14.248C45.1678 13.912 44.4238 13.744 43.5598 13.744C42.6958 13.744 41.9518 13.912 41.3278 14.248C40.7038 14.56 40.1878 14.98 39.7798 15.508C39.3718 16.036 39.0598 16.636 38.8438 17.308C38.6518 17.956 38.5558 18.616 38.5558 19.288Z" fill="#4B80FC"/>
<path d="M74.8925 10.216C76.0205 10.216 76.9805 10.42 77.7725 10.828C78.5885 11.212 79.2485 11.728 79.7525 12.376C80.2805 13.024 80.6645 13.768 80.9045 14.608C81.1445 15.448 81.2645 16.312 81.2645 17.2V28H76.9445V18.424C76.9445 17.92 76.9085 17.392 76.8365 16.84C76.7645 16.288 76.6085 15.796 76.3685 15.364C76.1285 14.908 75.7925 14.536 75.3605 14.248C74.9525 13.96 74.4005 13.816 73.7045 13.816C73.0325 13.816 72.4565 13.96 71.9765 14.248C71.4965 14.536 71.1005 14.908 70.7885 15.364C70.4765 15.82 70.2485 16.336 70.1045 16.912C69.9605 17.464 69.8885 18.016 69.8885 18.568V28H65.5685V17.56C65.5685 16.48 65.3045 15.592 64.7765 14.896C64.2725 14.176 63.4685 13.816 62.3645 13.816C61.7165 13.816 61.1525 13.96 60.6725 14.248C60.1925 14.512 59.7965 14.86 59.4845 15.292C59.1965 15.724 58.9685 16.228 58.8005 16.804C58.6565 17.356 58.5845 17.92 58.5845 18.496V28H54.2645V10.72H58.3685V13.492H58.4405C58.6325 13.06 58.8845 12.652 59.1965 12.268C59.5325 11.884 59.9165 11.536 60.3485 11.224C60.8045 10.912 61.3205 10.672 61.8965 10.504C62.4725 10.312 63.1085 10.216 63.8045 10.216C65.1485 10.216 66.2645 10.516 67.1525 11.116C68.0405 11.716 68.7245 12.508 69.2045 13.492C69.7805 12.436 70.5485 11.632 71.5085 11.08C72.4685 10.504 73.5965 10.216 74.8925 10.216Z" fill="#4B80FC"/>
</svg>
