<svg width="182" height="36" viewBox="0 0 182 36" fill="none" xmlns="http://www.w3.org/2000/svg">
<path d="M92.7998 14.364C92.4398 13.668 91.8878 13.104 91.1438 12.672C90.4238 12.216 89.5958 11.988 88.6598 11.988C88.2278 11.988 87.7958 12.036 87.3638 12.132C86.9318 12.228 86.5478 12.384 86.2118 12.6C85.8758 12.816 85.5998 13.092 85.3838 13.428C85.1918 13.764 85.0958 14.16 85.0958 14.616C85.0958 15.408 85.4198 16.02 86.0678 16.452C86.7158 16.86 87.7358 17.208 89.1278 17.496C91.1198 17.904 92.5838 18.504 93.5198 19.296C94.4798 20.064 94.9598 21.108 94.9598 22.428C94.9598 23.388 94.7678 24.204 94.3838 24.876C94.0238 25.524 93.5438 26.064 92.9438 26.496C92.3438 26.904 91.6598 27.192 90.8918 27.36C90.1478 27.552 89.3918 27.648 88.6238 27.648C87.3518 27.648 86.1158 27.384 84.9158 26.856C83.7158 26.328 82.7318 25.5 81.9638 24.372L83.9078 22.932C84.3398 23.676 84.9758 24.3 85.8158 24.804C86.6558 25.308 87.5798 25.56 88.5878 25.56C89.1158 25.56 89.6198 25.512 90.0998 25.416C90.5798 25.32 90.9998 25.152 91.3598 24.912C91.7198 24.672 92.0078 24.372 92.2238 24.012C92.4398 23.628 92.5478 23.16 92.5478 22.608C92.5478 21.72 92.1158 21.06 91.2518 20.628C90.4118 20.172 89.1878 19.752 87.5798 19.368C87.0758 19.248 86.5358 19.104 85.9598 18.936C85.4078 18.744 84.8918 18.48 84.4118 18.144C83.9318 17.784 83.5358 17.34 83.2238 16.812C82.9118 16.284 82.7558 15.624 82.7558 14.832C82.7558 13.968 82.9238 13.236 83.2598 12.636C83.5958 12.012 84.0398 11.508 84.5918 11.124C85.1678 10.716 85.8158 10.416 86.5358 10.224C87.2558 10.032 87.9998 9.936 88.7678 9.936C89.9438 9.936 91.0838 10.2 92.1878 10.728C93.2918 11.256 94.1198 12 94.6718 12.96L92.7998 14.364Z" fill="#F6791C"/>
<path d="M110.776 24.372C110.08 25.428 109.144 26.244 107.968 26.82C106.816 27.372 105.64 27.648 104.44 27.648C103.12 27.648 101.92 27.42 100.84 26.964C99.7839 26.508 98.8719 25.884 98.1039 25.092C97.3599 24.3 96.7719 23.364 96.3399 22.284C95.9319 21.204 95.7279 20.04 95.7279 18.792C95.7279 17.544 95.9319 16.38 96.3399 15.3C96.7719 14.22 97.3599 13.284 98.1039 12.492C98.8719 11.7 99.7839 11.076 100.84 10.62C101.92 10.164 103.12 9.936 104.44 9.936C105.64 9.936 106.816 10.224 107.968 10.8C109.144 11.352 110.08 12.18 110.776 13.284H110.884V10.368H113.332V35.856H110.884V24.372H110.776ZM98.3199 18.792C98.3199 19.728 98.4639 20.616 98.7519 21.456C99.0399 22.272 99.4479 22.992 99.9759 23.616C100.528 24.216 101.2 24.696 101.992 25.056C102.784 25.392 103.684 25.56 104.692 25.56C105.628 25.56 106.492 25.392 107.284 25.056C108.076 24.696 108.76 24.216 109.336 23.616C109.912 23.016 110.356 22.308 110.668 21.492C111.004 20.652 111.172 19.752 111.172 18.792C111.172 17.832 111.004 16.944 110.668 16.128C110.356 15.288 109.912 14.568 109.336 13.968C108.76 13.344 108.076 12.864 107.284 12.528C106.492 12.168 105.628 11.988 104.692 11.988C103.684 11.988 102.784 12.168 101.992 12.528C101.2 12.888 100.528 13.38 99.9759 14.004C99.4479 14.604 99.0399 15.324 98.7519 16.164C98.4639 16.98 98.3199 17.856 98.3199 18.792Z" fill="#F6791C"/>
<path d="M129.163 27.216C129.115 26.76 129.079 26.256 129.055 25.704C129.031 25.152 129.019 24.696 129.019 24.336H128.948C128.468 25.32 127.687 26.124 126.607 26.748C125.527 27.348 124.387 27.648 123.187 27.648C121.051 27.648 119.443 27.012 118.363 25.74C117.307 24.468 116.779 22.788 116.779 20.7V10.368H119.227V19.692C119.227 20.58 119.299 21.384 119.443 22.104C119.587 22.824 119.827 23.448 120.163 23.976C120.523 24.48 120.991 24.876 121.567 25.164C122.167 25.452 122.911 25.596 123.799 25.596C124.447 25.596 125.071 25.464 125.671 25.2C126.295 24.936 126.847 24.54 127.327 24.012C127.807 23.46 128.191 22.776 128.479 21.96C128.767 21.12 128.911 20.136 128.911 19.008V10.368H131.359V23.508C131.359 23.964 131.372 24.552 131.396 25.272C131.42 25.992 131.456 26.64 131.504 27.216H129.163Z" fill="#F6791C"/>
<path d="M145.581 16.344C145.581 14.88 145.197 13.788 144.429 13.068C143.661 12.348 142.545 11.988 141.081 11.988C140.073 11.988 139.137 12.168 138.273 12.528C137.409 12.888 136.677 13.368 136.077 13.968L134.709 12.348C135.405 11.652 136.317 11.076 137.445 10.62C138.597 10.164 139.893 9.936 141.333 9.936C142.245 9.936 143.097 10.068 143.889 10.332C144.681 10.572 145.377 10.944 145.977 11.448C146.577 11.952 147.045 12.588 147.381 13.356C147.717 14.124 147.885 15.024 147.885 16.056V23.436C147.885 24.084 147.909 24.756 147.957 25.452C148.005 26.148 148.077 26.736 148.173 27.216H145.977C145.905 26.808 145.845 26.364 145.797 25.884C145.749 25.404 145.725 24.936 145.725 24.48H145.653C144.885 25.608 144.009 26.424 143.025 26.928C142.065 27.408 140.901 27.648 139.533 27.648C138.885 27.648 138.213 27.552 137.517 27.36C136.845 27.192 136.221 26.904 135.645 26.496C135.093 26.088 134.625 25.56 134.241 24.912C133.881 24.264 133.701 23.472 133.701 22.536C133.701 21.24 134.025 20.22 134.673 19.476C135.345 18.708 136.233 18.144 137.337 17.784C138.441 17.4 139.701 17.16 141.117 17.064C142.557 16.944 144.045 16.884 145.581 16.884V16.344ZM144.861 18.792C143.853 18.792 142.833 18.84 141.801 18.936C140.793 19.008 139.869 19.176 139.029 19.44C138.213 19.68 137.541 20.04 137.013 20.52C136.485 21 136.221 21.636 136.221 22.428C136.221 23.028 136.329 23.532 136.545 23.94C136.785 24.348 137.097 24.684 137.481 24.948C137.865 25.188 138.285 25.368 138.741 25.488C139.221 25.584 139.701 25.632 140.181 25.632C141.045 25.632 141.813 25.488 142.485 25.2C143.157 24.888 143.721 24.48 144.177 23.976C144.633 23.448 144.981 22.848 145.221 22.176C145.461 21.504 145.581 20.796 145.581 20.052V18.792H144.861Z" fill="#F6791C"/>
<path d="M165.172 24.372C164.452 25.452 163.516 26.268 162.364 26.82C161.212 27.372 160.024 27.648 158.8 27.648C157.48 27.648 156.28 27.42 155.2 26.964C154.144 26.508 153.232 25.884 152.464 25.092C151.72 24.3 151.132 23.364 150.7 22.284C150.292 21.204 150.088 20.04 150.088 18.792C150.088 17.544 150.292 16.38 150.7 15.3C151.132 14.22 151.72 13.284 152.464 12.492C153.232 11.7 154.144 11.076 155.2 10.62C156.28 10.164 157.48 9.936 158.8 9.936C160.024 9.936 161.212 10.224 162.364 10.8C163.516 11.352 164.452 12.18 165.172 13.284H165.244V0H167.692V27.216H165.244V24.372H165.172ZM152.68 18.792C152.68 19.728 152.824 20.616 153.112 21.456C153.4 22.272 153.808 22.992 154.336 23.616C154.888 24.216 155.56 24.696 156.352 25.056C157.144 25.392 158.044 25.56 159.052 25.56C159.988 25.56 160.852 25.392 161.644 25.056C162.436 24.696 163.12 24.216 163.696 23.616C164.272 23.016 164.716 22.308 165.028 21.492C165.364 20.652 165.532 19.752 165.532 18.792C165.532 17.832 165.364 16.944 165.028 16.128C164.716 15.288 164.272 14.568 163.696 13.968C163.12 13.344 162.436 12.864 161.644 12.528C160.852 12.168 159.988 11.988 159.052 11.988C158.044 11.988 157.144 12.168 156.352 12.528C155.56 12.888 154.888 13.38 154.336 14.004C153.808 14.604 153.4 15.324 153.112 16.164C152.824 16.98 152.68 17.856 152.68 18.792Z" fill="#F6791C"/>
<path d="M0 23.4L9.324 13.392H0.432V9.93601H14.472V13.752L5.112 23.688H14.904V27.216H0V23.4Z" fill="#4B80FC"/>
<path d="M14.8472 18.504C14.8472 17.136 15.0872 15.9 15.5672 14.796C16.0712 13.668 16.7432 12.708 17.5832 11.916C18.4232 11.124 19.4192 10.512 20.5712 10.08C21.7232 9.64801 22.9472 9.43201 24.2432 9.43201C25.5392 9.43201 26.7632 9.64801 27.9152 10.08C29.0672 10.512 30.0632 11.124 30.9032 11.916C31.7432 12.708 32.4032 13.668 32.8832 14.796C33.3872 15.9 33.6392 17.136 33.6392 18.504C33.6392 19.872 33.3872 21.12 32.8832 22.248C32.4032 23.376 31.7432 24.348 30.9032 25.164C30.0632 25.956 29.0672 26.58 27.9152 27.036C26.7632 27.492 25.5392 27.72 24.2432 27.72C22.9472 27.72 21.7232 27.492 20.5712 27.036C19.4192 26.58 18.4232 25.956 17.5832 25.164C16.7432 24.348 16.0712 23.376 15.5672 22.248C15.0872 21.12 14.8472 19.872 14.8472 18.504ZM19.2392 18.504C19.2392 19.176 19.3352 19.848 19.5272 20.52C19.7432 21.192 20.0552 21.792 20.4632 22.32C20.8712 22.848 21.3872 23.28 22.0112 23.616C22.6352 23.952 23.3792 24.12 24.2432 24.12C25.1072 24.12 25.8512 23.952 26.4752 23.616C27.0992 23.28 27.6152 22.848 28.0232 22.32C28.4312 21.792 28.7312 21.192 28.9232 20.52C29.1392 19.848 29.2472 19.176 29.2472 18.504C29.2472 17.832 29.1392 17.172 28.9232 16.524C28.7312 15.852 28.4312 15.252 28.0232 14.724C27.6152 14.196 27.0992 13.776 26.4752 13.464C25.8512 13.128 25.1072 12.96 24.2432 12.96C23.3792 12.96 22.6352 13.128 22.0112 13.464C21.3872 13.776 20.8712 14.196 20.4632 14.724C20.0552 15.252 19.7432 15.852 19.5272 16.524C19.3352 17.172 19.2392 17.832 19.2392 18.504Z" fill="#4B80FC"/>
<path d="M33.9398 18.504C33.9398 17.136 34.1798 15.9 34.6598 14.796C35.1638 13.668 35.8358 12.708 36.6758 11.916C37.5158 11.124 38.5118 10.512 39.6638 10.08C40.8158 9.64801 42.0398 9.43201 43.3358 9.43201C44.6318 9.43201 45.8558 9.64801 47.0078 10.08C48.1598 10.512 49.1558 11.124 49.9958 11.916C50.8358 12.708 51.4958 13.668 51.9758 14.796C52.4798 15.9 52.7318 17.136 52.7318 18.504C52.7318 19.872 52.4798 21.12 51.9758 22.248C51.4958 23.376 50.8358 24.348 49.9958 25.164C49.1558 25.956 48.1598 26.58 47.0078 27.036C45.8558 27.492 44.6318 27.72 43.3358 27.72C42.0398 27.72 40.8158 27.492 39.6638 27.036C38.5118 26.58 37.5158 25.956 36.6758 25.164C35.8358 24.348 35.1638 23.376 34.6598 22.248C34.1798 21.12 33.9398 19.872 33.9398 18.504ZM38.3318 18.504C38.3318 19.176 38.4278 19.848 38.6198 20.52C38.8358 21.192 39.1478 21.792 39.5558 22.32C39.9638 22.848 40.4798 23.28 41.1038 23.616C41.7278 23.952 42.4718 24.12 43.3358 24.12C44.1998 24.12 44.9438 23.952 45.5678 23.616C46.1918 23.28 46.7078 22.848 47.1158 22.32C47.5238 21.792 47.8238 21.192 48.0158 20.52C48.2318 19.848 48.3398 19.176 48.3398 18.504C48.3398 17.832 48.2318 17.172 48.0158 16.524C47.8238 15.852 47.5238 15.252 47.1158 14.724C46.7078 14.196 46.1918 13.776 45.5678 13.464C44.9438 13.128 44.1998 12.96 43.3358 12.96C42.4718 12.96 41.7278 13.128 41.1038 13.464C40.4798 13.776 39.9638 14.196 39.5558 14.724C39.1478 15.252 38.8358 15.852 38.6198 16.524C38.4278 17.172 38.3318 17.832 38.3318 18.504Z" fill="#4B80FC"/>
<path d="M74.6685 9.43201C75.7965 9.43201 76.7565 9.63601 77.5485 10.044C78.3645 10.428 79.0245 10.944 79.5285 11.592C80.0565 12.24 80.4405 12.984 80.6805 13.824C80.9205 14.664 81.0405 15.528 81.0405 16.416V27.216H76.7205V17.64C76.7205 17.136 76.6845 16.608 76.6125 16.056C76.5405 15.504 76.3845 15.012 76.1445 14.58C75.9045 14.124 75.5685 13.752 75.1365 13.464C74.7285 13.176 74.1765 13.032 73.4805 13.032C72.8085 13.032 72.2325 13.176 71.7525 13.464C71.2725 13.752 70.8765 14.124 70.5645 14.58C70.2525 15.036 70.0245 15.552 69.8805 16.128C69.7365 16.68 69.6645 17.232 69.6645 17.784V27.216H65.3445V16.776C65.3445 15.696 65.0805 14.808 64.5525 14.112C64.0485 13.392 63.2445 13.032 62.1405 13.032C61.4925 13.032 60.9285 13.176 60.4485 13.464C59.9685 13.728 59.5725 14.076 59.2605 14.508C58.9725 14.94 58.7445 15.444 58.5765 16.02C58.4325 16.572 58.3605 17.136 58.3605 17.712V27.216H54.0405V9.93601H58.1445V12.708H58.2165C58.4085 12.276 58.6605 11.868 58.9725 11.484C59.3085 11.1 59.6925 10.752 60.1245 10.44C60.5805 10.128 61.0965 9.88801 61.6725 9.72001C62.2485 9.52801 62.8845 9.43201 63.5805 9.43201C64.9245 9.43201 66.0405 9.73201 66.9285 10.332C67.8165 10.932 68.5005 11.724 68.9805 12.708C69.5565 11.652 70.3245 10.848 71.2845 10.296C72.2445 9.72001 73.3725 9.43201 74.6685 9.43201Z" fill="#4B80FC"/>
<path d="M173 2.95H176.51V3.58H175.13V7.16H174.37V3.58H173V2.95ZM181.27 2.95V7.16H180.6V4.34L179.47 6.49H178.97L177.84 4.37V7.16H177.16V2.95H177.76L179.22 5.75L180.68 2.95H181.27Z" fill="#B6BDCC"/>
</svg>
